<?xml version="1.0" standalone="no"?>
<!DOCTYPE svg PUBLIC "-//W3C//DTD SVG 20010904//EN"
 "http://www.w3.org/TR/2001/REC-SVG-20010904/DTD/svg10.dtd">
<svg version="1.0" xmlns="http://www.w3.org/2000/svg"
 width="980.000000pt" height="920.000000pt" viewBox="0 0 980.000000 920.000000"
 preserveAspectRatio="xMidYMid meet">

<g transform="translate(0.000000,920.000000) scale(0.100000,-0.100000)"
fill="#000000" stroke="none">
<path d="M3200 8837 l0 -363 -92 -13 c-111 -16 -303 -67 -411 -110 -263 -105
-471 -238 -666 -426 -173 -168 -288 -321 -388 -520 -161 -318 -227 -645 -203
-990 20 -268 81 -488 201 -725 105 -207 216 -357 386 -521 541 -524 1328 -702
2052 -463 372 122 723 366 944 656 l52 68 1597 0 1598 0 0 115 0 115 -1524 0
-1525 0 39 84 c78 168 134 361 161 544 l11 82 1419 0 1419 0 0 115 0 115
-1414 0 -1413 0 -7 31 c-3 17 -6 51 -6 74 0 64 -35 258 -66 360 -14 50 -29 98
-31 107 -5 17 71 18 1463 20 l1469 3 3 118 3 117 -1525 0 -1524 0 -53 88
c-199 331 -486 594 -834 762 -121 59 -275 117 -372 140 -49 11 -53 14 -53 41
l0 29 2590 0 2590 0 0 -3300 0 -3300 -1159 0 -1159 0 -27 82 c-257 782 -752
1449 -1400 1887 -175 118 -348 214 -473 262 -21 8 -72 -58 -728 -932 -388
-518 -709 -937 -713 -933 -6 7 -686 1057 -1238 1912 l-53 82 -123 -61 c-308
-155 -568 -342 -831 -599 -677 -660 -1101 -1524 -1176 -2395 -19 -229 -6 -589
22 -607 46 -29 358 -152 543 -213 1398 -465 3354 -495 5260 -80 341 74 621
147 1084 283 l54 16 -7 137 c-4 76 -13 195 -21 266 -8 70 -15 140 -15 156 l0
27 1435 0 1435 0 0 4010 0 4010 -3300 0 -3300 0 0 -363z"/>
<path d="M5910 4720 l0 -120 1180 0 1180 0 0 120 0 120 -1180 0 -1180 0 0
-120z"/>
</g>
</svg>
